# xmcd
#
# Track frame offsets:
#	150
#	14372
#	33787
#	44211
#	54045
#	64441
#	83136
#	99375
#	117412
#	130296
#
# Disc length: 1855 seconds
#
# Revision: 0
# Processed by: cddbd v1.5.2PL0 Copyright (c) Steve Scherf et al.
# Submitted via: EasyCDDAExtractor 11.1.0.1
#
DISCID=83073d0a
DTITLE=The Flying Burrito Brothers - Flying Again
DYEAR=1975
DGENRE=Classic Rock
TTITLE0=Easy To Get On
TTITLE1=Wind and Rain
TTITLE2=Why Baby Why
TTITLE3=Dim Lights Thick Smoke
TTITLE4=You Left the water Running
TTITLE5=Building Fires
TTITLE6=Sweet Desert Childhood
TTITLE7=Bon Soir Blues
TTITLE8=River Road
TTITLE9=Hot Burrito Three
EXTD=
EXTT0=
EXTT1=
EXTT2=
EXTT3=
EXTT4=
EXTT5=
EXTT6=
EXTT7=
EXTT8=
EXTT9=
PLAYORDER=
